<svg width="229" height="76" viewBox="0 0 229 76" fill="none" xmlns="http://www.w3.org/2000/svg">
<g clip-path="url(#clip0_446_11931)">
<g clip-path="url(#clip1_446_11931)">
<g clip-path="url(#clip2_446_11931)">
<path d="M38.461 0.933789C59.1867 0.933789 75.9882 17.7268 75.9882 38.4419C75.9882 59.157 59.1867 75.9501 38.461 75.9501C17.7353 75.9501 0.933789 59.157 0.933789 38.4419C0.933789 17.7268 17.7353 0.933789 38.461 0.933789Z" fill="url(#paint0_linear_446_11931)" stroke="#54BDF1" stroke-width="0.1"/>
</g>
</g>
<path d="M35.8332 31.1973C35.8332 30.1798 35.8332 29.1785 35.8332 28.0878C38.8657 30.4932 41.8245 32.8416 44.8242 35.2185C41.8286 37.5954 38.8698 39.9438 35.8577 42.3288C35.8168 41.9625 35.8414 41.6492 35.8373 41.3398C35.8332 41.0183 35.8373 40.7008 35.8373 40.3793C35.8373 40.0618 35.8373 39.7444 35.8373 39.4106C35.7145 39.4188 35.6326 39.4106 35.5549 39.4269C34.6873 39.606 33.8402 39.8461 33.0749 40.2979C32.6779 40.534 32.3014 40.8148 31.9658 41.1282C31.2456 41.8038 30.9182 42.6626 30.8977 43.6435C30.8813 44.2743 30.9305 44.897 31.1351 45.5035C31.4788 46.5169 32.1582 47.2251 33.1158 47.681C33.9507 48.0798 34.8305 48.3159 35.7391 48.4706C37.4047 48.7555 39.0826 48.7595 40.7646 48.7148C41.7304 48.6903 42.6921 48.6618 43.6579 48.613C44.3454 48.5804 45.0371 48.5112 45.7246 48.4543C45.8146 48.4461 45.9046 48.4136 46.0192 48.3851C46.0192 48.2426 46.0192 48.1124 46.0192 47.9862C46.0192 42.3329 46.0192 36.6796 46.0233 31.0263C46.0233 30.1431 45.9456 29.2721 45.6264 28.4418C44.9306 26.6429 43.6252 25.4829 41.7999 24.8765C40.7891 24.5427 39.7455 24.3555 38.6897 24.2741C36.5207 24.1072 34.3558 24.1805 32.1909 24.3352C29.7396 24.5143 27.3127 24.8317 24.9228 25.4137C24.4399 25.5318 23.957 25.6701 23.429 25.8085C22.8274 22.6746 22.2504 19.5488 21.6611 16.4149C21.7634 16.3782 21.8371 16.3416 21.9148 16.3212C23.9406 15.8288 25.9827 15.4258 28.0535 15.1776C30.0137 14.9456 31.9781 14.7176 33.9507 14.563C36.1237 14.388 38.305 14.3676 40.4863 14.4694C42.7617 14.5752 45.0207 14.8031 47.2429 15.3282C49.0435 15.7555 50.7828 16.366 52.4075 17.2655C55.5628 19.0115 57.6417 21.6082 58.5871 25.0841C58.9881 26.5533 59.2378 28.043 59.3196 29.5611C59.3565 30.2367 59.3769 30.9124 59.3769 31.5839C59.381 39.4635 59.381 47.3472 59.381 55.2268C59.381 55.3815 59.381 55.5321 59.381 55.7112C59.0332 55.7763 58.7099 55.8495 58.3825 55.8984C56.1603 56.2403 53.934 56.5781 51.7118 56.92C49.7924 57.2171 47.8608 57.4084 45.9251 57.5305C44.415 57.6241 42.9049 57.6689 41.3907 57.7218C39.2831 57.791 37.1714 57.8032 35.0679 57.6811C32.2114 57.5183 29.3753 57.1927 26.6252 56.342C24.7468 55.76 22.9707 54.9663 21.4115 53.7535C19.2097 52.04 17.8429 49.8177 17.3436 47.0745C17.0817 45.6419 17.0121 44.2051 17.1512 42.7562C17.4132 39.9682 18.6532 37.6809 20.7485 35.829C22.1195 34.6161 23.7155 33.7777 25.4139 33.1183C27.0958 32.4671 28.8351 32.0357 30.6153 31.7467C32.2523 31.4822 33.8934 31.299 35.5508 31.2298C35.6163 31.238 35.7063 31.2176 35.8332 31.1973Z" fill="#F7F7F7"/>
<path d="M93.3361 21.9988C91.9447 21.9988 90.8111 22.2023 89.9639 22.6012C89.1004 23.0082 88.4743 23.5536 88.0978 24.2089C87.7254 24.8601 87.5371 25.5927 87.5371 26.3904C87.5371 27.2695 87.7663 28.0632 88.2206 28.7429C88.6748 29.4267 89.3337 29.9598 90.1849 30.3261C91.0157 30.6884 92.0101 30.8715 93.1356 30.8715C94.6538 30.8715 95.9307 30.5378 96.9251 29.8825C97.3835 29.5813 97.7805 29.2272 98.116 28.8284V30.7576H100.089V21.1889C100.089 19.3004 99.5648 17.8474 98.5294 16.8787C97.4981 15.9141 96.0166 15.4216 94.1218 15.4216C92.9637 15.4216 91.8423 15.6129 90.7824 15.9833C89.7184 16.3577 88.7935 16.8909 88.0323 17.5706L87.8277 17.7538L88.8876 19.2719L89.1495 19.044C89.7388 18.5271 90.4632 18.0997 91.2981 17.77C92.1288 17.4404 93.0414 17.2735 94.0113 17.2735C95.3455 17.2735 96.3686 17.6032 97.0479 18.2503C97.7232 18.8975 98.0628 19.8661 98.0628 21.1319V21.9988H93.3361ZM96.299 28.3155C95.501 28.8406 94.5024 29.1051 93.332 29.1051C92.1165 29.1051 91.1671 28.8446 90.5123 28.3318C89.8739 27.8312 89.5629 27.1759 89.5629 26.3375C89.5629 25.5805 89.8289 24.97 90.3773 24.4653C90.9256 23.9647 91.9283 23.7082 93.3606 23.7082H98.0587V26.0811C97.6741 27.0538 97.0807 27.8068 96.299 28.3155Z" fill="white"/>
<path d="M106.907 17.9569C107.701 17.5174 108.654 17.2976 109.739 17.2976C111.143 17.2976 112.248 17.7005 113.017 18.4901C113.791 19.2838 114.183 20.4763 114.183 22.027V30.7613H116.213V21.913C116.213 20.5048 115.951 19.3041 115.432 18.3395C114.908 17.3627 114.163 16.622 113.218 16.1376C112.284 15.6614 111.184 15.4172 109.935 15.4172C108.38 15.4172 107.046 15.7673 105.966 16.4592C105.356 16.8499 104.84 17.3302 104.419 17.8878V15.5271H102.446V30.7572H104.476V22.6701C104.476 21.5508 104.685 20.5821 105.102 19.7925C105.516 19.0111 106.121 18.3924 106.907 17.9569Z" fill="white"/>
<path d="M132.283 23.1463C132.283 21.6445 131.948 20.2973 131.285 19.1455C130.622 17.9937 129.701 17.0738 128.551 16.4145C127.401 15.7551 126.079 15.4214 124.626 15.4214C123.17 15.4214 121.856 15.7551 120.714 16.4145C119.576 17.0738 118.656 17.9896 117.984 19.1414C117.313 20.2932 116.974 21.6404 116.974 23.1463C116.974 24.6319 117.313 25.975 117.984 27.135C118.656 28.299 119.576 29.2229 120.714 29.8782C121.856 30.5375 123.17 30.8713 124.626 30.8713C126.083 30.8713 127.401 30.5375 128.551 29.8782C129.701 29.2189 130.622 28.2949 131.285 27.1309C131.948 25.971 132.283 24.6319 132.283 23.1463ZM124.626 28.995C123.562 28.995 122.597 28.7508 121.758 28.2665C120.919 27.7821 120.248 27.0943 119.765 26.2152C119.278 25.332 119.028 24.3022 119.028 23.1463C119.028 21.9742 119.274 20.9363 119.765 20.0653C120.252 19.1984 120.923 18.5106 121.758 18.0262C122.597 17.5419 123.562 17.2977 124.626 17.2977C125.691 17.2977 126.66 17.5419 127.512 18.0262C128.359 18.5106 129.026 19.1943 129.505 20.0612C129.983 20.9363 130.225 21.9742 130.225 23.1463C130.225 24.3022 129.983 25.336 129.501 26.2192C129.026 27.0943 128.355 27.7862 127.508 28.2665C126.66 28.7467 125.691 28.995 124.626 28.995Z" fill="white"/>
<path d="M135.239 22.6701C135.239 21.5508 135.448 20.5821 135.865 19.7925C136.274 19.0111 136.88 18.3965 137.666 17.961C138.46 17.5215 139.413 17.3017 140.498 17.3017C141.905 17.3017 143.006 17.7046 143.776 18.4942C144.549 19.2879 144.942 20.4763 144.942 22.0311V30.7654H146.972V21.913C146.972 20.5048 146.71 19.3041 146.19 18.3395C145.666 17.3627 144.922 16.626 143.976 16.1376C143.043 15.6614 141.942 15.4172 140.694 15.4172C139.139 15.4172 137.805 15.7673 136.728 16.4592C136.119 16.8499 135.603 17.3302 135.182 17.8878V15.5271H133.209V30.7572H135.239V22.6701Z" fill="white"/>
<path d="M182.923 16.1418C182.011 15.6615 180.922 15.4214 179.698 15.4214C178.082 15.4214 176.686 15.8325 175.549 16.6424C174.824 17.1593 174.243 17.7779 173.809 18.5024C173.449 17.721 172.934 17.0779 172.271 16.5895C171.215 15.8162 169.909 15.4255 168.387 15.4255C166.905 15.4255 165.616 15.7755 164.556 16.4715C163.971 16.854 163.472 17.318 163.071 17.8593V15.5394H161.639H161.098H159.519L153.842 28.1566L148.158 15.5394H145.981L152.742 30.4073L152.005 32.0394C151.579 32.9755 151.125 33.6186 150.654 33.9605C150.188 34.2983 149.664 34.4611 149.05 34.4611C148.535 34.4611 148.068 34.3756 147.667 34.2047C147.266 34.0337 146.889 33.7651 146.546 33.4069L146.276 33.1261L145.22 34.7216L145.392 34.9006C145.834 35.3605 146.378 35.7146 147.012 35.9548C147.638 36.1908 148.314 36.3129 149.022 36.3129C149.717 36.3129 150.36 36.1908 150.941 35.9548C151.526 35.7146 152.07 35.3158 152.562 34.7704C153.04 34.2331 153.491 33.4965 153.892 32.5807L161.09 16.736V30.7777H163.12V22.6701C163.12 21.5509 163.325 20.5781 163.734 19.7885C164.135 19.0071 164.72 18.3885 165.469 17.957C166.226 17.5215 167.139 17.2977 168.182 17.2977C169.529 17.2977 170.589 17.6965 171.334 18.4861C172.082 19.2798 172.459 20.4723 172.459 22.0271V30.7614H174.489V22.6701C174.489 21.5509 174.693 20.5781 175.103 19.7885C175.504 19.0071 176.089 18.3885 176.838 17.957C177.595 17.5215 178.508 17.2977 179.551 17.2977C180.898 17.2977 181.957 17.6965 182.702 18.4861C183.451 19.2839 183.828 20.4723 183.828 22.0271V30.7614H185.858V21.9131C185.858 20.5049 185.6 19.3042 185.088 18.3396C184.581 17.3669 183.848 16.6261 182.923 16.1418Z" fill="white"/>
<path d="M198.201 16.4145C197.051 15.7551 195.729 15.4214 194.276 15.4214C192.819 15.4214 191.505 15.7551 190.364 16.4145C189.222 17.0738 188.305 17.9896 187.634 19.1455C186.963 20.2973 186.623 21.6445 186.623 23.1504C186.623 24.636 186.963 25.9791 187.634 27.1391C188.305 28.3031 189.226 29.227 190.364 29.8823C191.505 30.5416 192.819 30.8754 194.276 30.8754C195.733 30.8754 197.051 30.5416 198.201 29.8823C199.351 29.2229 200.271 28.299 200.934 27.135C201.597 25.975 201.933 24.6319 201.933 23.1463C201.933 21.6445 201.597 20.2973 200.934 19.1455C200.271 17.9896 199.351 17.0738 198.201 16.4145ZM194.276 28.995C193.212 28.995 192.246 28.7508 191.407 28.2665C190.568 27.7821 189.897 27.0943 189.414 26.2152C188.927 25.332 188.677 24.3022 188.677 23.1463C188.677 21.9742 188.923 20.9363 189.414 20.0653C189.901 19.1984 190.572 18.5106 191.407 18.0262C192.246 17.5419 193.212 17.2977 194.276 17.2977C195.34 17.2977 196.31 17.5419 197.161 18.0262C198.008 18.5106 198.675 19.1943 199.154 20.0612C199.633 20.9363 199.874 21.9742 199.874 23.1463C199.874 24.3022 199.633 25.336 199.15 26.2192C198.675 27.0943 198.004 27.7862 197.157 28.2665C196.31 28.7467 195.34 28.995 194.276 28.995Z" fill="white"/>
<path d="M214.308 23.6225C214.308 24.7255 214.103 25.6901 213.694 26.4919C213.293 27.2815 212.708 27.9042 211.959 28.3356C211.206 28.7711 210.293 28.995 209.246 28.995C207.801 28.995 206.672 28.592 205.894 27.8024C205.112 27.0088 204.715 25.8203 204.715 24.2696V15.5312H202.686V24.3795C202.686 25.7878 202.947 26.9884 203.467 27.953C203.995 28.9298 204.752 29.6706 205.726 30.1549C206.684 30.6311 207.83 30.8713 209.131 30.8713C210.576 30.8713 211.84 30.5212 212.892 29.8253C213.473 29.4427 213.964 28.9828 214.365 28.4455V30.7614H216.338V15.5312H214.308V23.6225Z" fill="white"/>
<path d="M228.423 24.461C228.047 23.9441 227.54 23.533 226.909 23.244C226.312 22.9673 225.645 22.7475 224.929 22.5928C224.237 22.4463 223.533 22.3079 222.833 22.1858C222.158 22.0678 221.528 21.9131 220.967 21.7218C220.435 21.5427 220.009 21.2863 219.698 20.9607C219.404 20.6555 219.265 20.2444 219.265 19.7031C219.265 19.0152 219.551 18.4536 220.144 17.9855C220.75 17.5093 221.741 17.2692 223.091 17.2692C223.848 17.2692 224.605 17.3709 225.346 17.5663C226.074 17.7617 226.737 18.0832 227.323 18.5228L227.605 18.7344L228.567 17.0738L228.346 16.911C227.736 16.4633 226.942 16.097 225.98 15.8243C225.027 15.5557 224.065 15.4214 223.124 15.4214C221.847 15.4214 220.762 15.6127 219.903 15.9953C219.027 16.3819 218.36 16.9029 217.914 17.546C217.468 18.1931 217.239 18.9298 217.239 19.7356C217.239 20.6188 217.431 21.3433 217.816 21.8846C218.192 22.4219 218.7 22.8452 219.33 23.1463C219.932 23.4353 220.599 23.6592 221.315 23.8138C222.007 23.9644 222.71 24.0987 223.41 24.2208C224.09 24.3389 224.72 24.4935 225.28 24.6726C225.812 24.8435 226.238 25.0877 226.549 25.393C226.84 25.682 226.979 26.0727 226.979 26.5896C226.979 27.3141 226.688 27.8839 226.091 28.3275C225.473 28.7874 224.421 29.0194 222.956 29.0194C221.908 29.0194 220.922 28.8525 220.026 28.5229C219.13 28.1932 218.401 27.7943 217.869 27.3344L217.583 27.0902L216.625 28.7467L216.805 28.9136C217.415 29.4834 218.282 29.9596 219.379 30.3259C220.468 30.6881 221.65 30.8754 222.899 30.8754C224.188 30.8754 225.297 30.7003 226.193 30.3503C227.11 29.9922 227.814 29.4875 228.284 28.8444C228.763 28.1973 229.005 27.428 229.005 26.5611C229.001 25.6942 228.808 24.9901 228.423 24.461Z" fill="white"/>
<path d="M101.157 42.3244C100.6 41.5837 99.917 40.9854 99.123 40.5255C98.0345 39.8987 96.7945 39.5853 95.444 39.5853C94.0198 39.5853 92.7143 39.915 91.5684 40.5702C90.4184 41.2255 89.5017 42.1453 88.8347 43.3012C88.1676 44.4612 87.832 45.8247 87.832 47.355C87.832 48.865 88.1676 50.2244 88.8347 51.3925C89.5017 52.5606 90.4225 53.4845 91.5684 54.1398C92.7143 54.791 94.0198 55.1247 95.444 55.1247C96.8149 55.1247 98.0631 54.8073 99.1517 54.1846C99.9497 53.7246 100.633 53.1141 101.186 52.3612V55.0148H103.199V33.5046H101.157V42.3244ZM98.4151 52.4996C97.572 52.9839 96.6021 53.2322 95.5299 53.2322C94.4577 53.2322 93.4878 52.988 92.6447 52.4996C91.8017 52.0152 91.1264 51.3192 90.6394 50.436C90.1483 49.5488 89.8987 48.5109 89.8987 47.3509C89.8987 46.1706 90.1483 45.1287 90.6353 44.2496C91.1223 43.3745 91.7976 42.6867 92.6406 42.2023C93.4837 41.718 94.4536 41.4697 95.5258 41.4697C96.5939 41.4697 97.5679 41.718 98.411 42.2023C99.254 42.6867 99.9292 43.3786 100.416 44.2496C100.907 45.1287 101.157 46.1706 101.157 47.3509C101.157 48.5109 100.907 49.5488 100.416 50.436C99.9292 51.3233 99.254 52.0152 98.4151 52.4996Z" fill="white"/>
<path d="M108.294 39.6951H106.252V55.0066H108.294V39.6951Z" fill="white"/>
<path d="M107.271 33.8423C106.866 33.8423 106.514 33.9847 106.228 34.2696C105.941 34.5545 105.798 34.9046 105.798 35.3075C105.798 35.6942 105.941 36.032 106.228 36.3169C106.514 36.6018 106.866 36.7442 107.271 36.7442C107.697 36.7442 108.053 36.5977 108.331 36.3087C108.605 36.0238 108.744 35.6779 108.744 35.279C108.744 34.8761 108.605 34.5342 108.327 34.2574C108.049 33.9847 107.697 33.8423 107.271 33.8423Z" fill="white"/>
<path d="M123.285 42.2673C122.708 41.5265 121.996 40.9282 121.157 40.4765C120.048 39.8822 118.787 39.5811 117.4 39.5811C115.959 39.5811 114.646 39.8985 113.5 40.5212C112.354 41.148 111.429 42.0272 110.75 43.1383C110.07 44.2535 109.727 45.5559 109.727 47.013C109.727 48.4538 110.07 49.7521 110.746 50.8754C111.421 51.9947 112.346 52.886 113.492 53.521C114.637 54.1559 115.951 54.4734 117.392 54.4734C118.779 54.4734 120.044 54.1681 121.149 53.5617C121.959 53.1221 122.65 52.5401 123.219 51.8238V53.289C123.219 55.1653 122.777 56.545 121.91 57.3997C121.042 58.2544 119.643 58.6899 117.756 58.6899C116.61 58.6899 115.526 58.5068 114.539 58.1445C113.557 57.7864 112.702 57.2776 111.998 56.6305L111.736 56.3904L110.611 57.9655L110.803 58.1527C111.589 58.9138 112.616 59.5161 113.864 59.9394C115.1 60.3627 116.418 60.5744 117.785 60.5744C120.236 60.5744 122.11 59.9639 123.363 58.7551C124.619 57.5462 125.253 55.6496 125.253 53.114V39.695H123.268V42.2673H123.285ZM122.519 49.9108C122.032 50.7493 121.353 51.4086 120.502 51.8767C119.647 52.3447 118.644 52.5849 117.51 52.5849C116.418 52.5849 115.427 52.3488 114.564 51.8767C113.704 51.4086 113.021 50.7493 112.534 49.9108C112.047 49.0724 111.797 48.0956 111.797 47.013C111.797 45.91 112.043 44.9332 112.534 44.1029C113.021 43.2767 113.704 42.6254 114.564 42.1655C115.427 41.7056 116.422 41.4696 117.514 41.4696C118.644 41.4696 119.651 41.7015 120.506 42.1655C121.357 42.6254 122.032 43.2767 122.519 44.1029C123.006 44.9332 123.256 45.914 123.256 47.013C123.256 48.0997 123.011 49.0724 122.519 49.9108Z" fill="white"/>
<path d="M130.393 39.6951H128.351V55.0066H130.393V39.6951Z" fill="white"/>
<path d="M129.37 33.8423C128.965 33.8423 128.613 33.9847 128.326 34.2696C128.04 34.5545 127.896 34.9046 127.896 35.3075C127.896 35.6901 128.04 36.032 128.326 36.3169C128.613 36.6018 128.965 36.7442 129.37 36.7442C129.795 36.7442 130.151 36.5977 130.43 36.3087C130.704 36.0238 130.843 35.6779 130.843 35.279C130.843 34.8761 130.704 34.5342 130.426 34.2574C130.147 33.9847 129.795 33.8423 129.37 33.8423Z" fill="white"/>
<path d="M140.28 52.5523C139.732 53.0489 139.048 53.289 138.197 53.289C137.395 53.289 136.802 53.0733 136.388 52.6297C135.975 52.186 135.766 51.5267 135.766 50.6761V41.5307H140.464V39.6991H135.766V36.4919H133.724V39.6991H131.007V41.5307H133.724V50.8144C133.724 52.1291 134.101 53.1873 134.846 53.9565C135.59 54.7298 136.671 55.1205 138.058 55.1205C138.656 55.1205 139.241 55.031 139.806 54.8519C140.387 54.6688 140.89 54.3798 141.299 53.9932L141.479 53.8222L140.559 52.3L140.28 52.5523Z" fill="white"/>
<path d="M147.704 39.5852C146.541 39.5852 145.412 39.7765 144.344 40.1509C143.271 40.5295 142.342 41.0667 141.581 41.7464L141.377 41.9296L142.441 43.4558L142.703 43.2238C143.296 42.7069 144.02 42.2755 144.859 41.9418C145.694 41.6121 146.615 41.4452 147.589 41.4452C148.931 41.4452 149.959 41.7749 150.642 42.4261C151.321 43.0732 151.665 44.05 151.665 45.324V46.195H146.914C145.514 46.195 144.376 46.3985 143.525 46.8014C142.658 47.2125 142.027 47.7579 141.647 48.4213C141.274 49.0766 141.082 49.8132 141.082 50.615C141.082 51.4982 141.315 52.296 141.77 52.9797C142.228 53.6676 142.891 54.2007 143.746 54.5711C144.581 54.9334 145.584 55.1165 146.713 55.1165C148.24 55.1165 149.521 54.7828 150.523 54.1234C150.982 53.8222 151.383 53.4681 151.722 53.0652V55.0066H153.707V45.381C153.707 43.4802 153.179 42.0232 152.136 41.0464C151.1 40.0777 149.607 39.5852 147.704 39.5852ZM149.897 52.5524C149.095 53.0774 148.092 53.346 146.914 53.346C145.69 53.346 144.737 53.0856 144.078 52.5687C143.435 52.064 143.12 51.4087 143.12 50.5621C143.12 49.801 143.386 49.1864 143.939 48.6818C144.487 48.1771 145.498 47.9207 146.938 47.9207H151.661V50.3098C151.276 51.2825 150.679 52.0395 149.897 52.5524Z" fill="white"/>
<path d="M158.659 33.5046H156.617V55.0067H158.659V33.5046Z" fill="white"/>
</g>
<defs>
<linearGradient id="paint0_linear_446_11931" x1="68.4705" y1="61.0438" x2="8.47056" y2="15.8077" gradientUnits="userSpaceOnUse">
<stop stop-color="#7C04BE"/>
<stop offset="0.1185" stop-color="#7412C2"/>
<stop offset="0.3409" stop-color="#6136CC"/>
<stop offset="0.6435" stop-color="#4070DC"/>
<stop offset="1" stop-color="#16BDF1"/>
</linearGradient>
<clipPath id="clip0_446_11931">
<rect width="229" height="76" fill="white"/>
</clipPath>
<clipPath id="clip1_446_11931">
<rect width="76.1192" height="75.7029" fill="white" transform="translate(0.40918 0.406982)"/>
</clipPath>
<clipPath id="clip2_446_11931">
<rect width="76.0386" height="76" fill="white"/>
</clipPath>
</defs>
</svg>
